<svg width="24" height="24" viewBox="0 0 24 24" fill="none" xmlns="http://www.w3.org/2000/svg">
<path fill-rule="evenodd" clip-rule="evenodd" d="M0 5C0 3.89543 0.895431 3 2 3H22C23.1046 3 24 3.89543 24 5V9.75H21.75V5.75C21.75 5.47386 21.5261 5.25 21.25 5.25H2.75C2.47386 5.25 2.25 5.47386 2.25 5.75V18.25C2.25 18.5261 2.47386 18.75 2.75 18.75H13.8V21H2C0.89543 21 0 20.1046 0 19V5ZM13.8 9.75H19.125C19.7463 9.75 20.25 9.24632 20.25 8.625C20.25 8.00368 19.7463 7.5 19.125 7.5H4.875C4.25368 7.5 3.75 8.00368 3.75 8.625C3.75 9.24632 4.25368 9.75 4.875 9.75H13.8ZM3.75 12C3.75 11.3787 4.25368 10.875 4.875 10.875H11.025C11.6463 10.875 12.15 11.3787 12.15 12C12.15 12.6213 11.6463 13.125 11.025 13.125H4.875C4.25368 13.125 3.75 12.6213 3.75 12Z" fill="#747272"/>
<circle cx="19.5" cy="12.75" r="2.25" fill="#747272"/>
<path d="M15 18.5C15 17.3954 15.8954 16.5 17 16.5H22C23.1046 16.5 24 17.3954 24 18.5V20.5C24 20.7761 23.7761 21 23.5 21H15.5C15.2239 21 15 20.7761 15 20.5V18.5Z" fill="#747272"/>
</svg>
