<svg width="24" height="24" viewBox="0 0 24 24" fill="none" xmlns="http://www.w3.org/2000/svg">
<path fill-rule="evenodd" clip-rule="evenodd" d="M18 22.5C20.4853 22.5 22.5 20.4853 22.5 18C22.5 15.5147 20.4853 13.5 18 13.5C15.5147 13.5 13.5 15.5147 13.5 18C13.5 20.4853 15.5147 22.5 18 22.5ZM18 20.25C19.2426 20.25 20.25 19.2426 20.25 18C20.25 16.7574 19.2426 15.75 18 15.75C16.7574 15.75 15.75 16.7574 15.75 18C15.75 19.2426 16.7574 20.25 18 20.25Z" fill="#747272"/>
<path fill-rule="evenodd" clip-rule="evenodd" d="M6 22.5C8.48528 22.5 10.5 20.4853 10.5 18C10.5 15.5147 8.48528 13.5 6 13.5C3.51472 13.5 1.5 15.5147 1.5 18C1.5 20.4853 3.51472 22.5 6 22.5ZM6 20.25C7.24264 20.25 8.25 19.2426 8.25 18C8.25 16.7574 7.24264 15.75 6 15.75C4.75736 15.75 3.75 16.7574 3.75 18C3.75 19.2426 4.75736 20.25 6 20.25Z" fill="#747272"/>
<path fill-rule="evenodd" clip-rule="evenodd" d="M3.5 1.5C2.39543 1.5 1.5 2.39543 1.5 3.5V8.5C1.5 9.60457 2.39543 10.5 3.5 10.5H8.5C9.60457 10.5 10.5 9.60457 10.5 8.5V3.5C10.5 2.39543 9.60457 1.5 8.5 1.5H3.5ZM4.25 3.75C3.97386 3.75 3.75 3.97386 3.75 4.25V7.75C3.75 8.02614 3.97386 8.25 4.25 8.25H7.75C8.02614 8.25 8.25 8.02614 8.25 7.75V4.25C8.25 3.97386 8.02614 3.75 7.75 3.75H4.25Z" fill="#747272"/>
<path fill-rule="evenodd" clip-rule="evenodd" d="M18 10.5C20.4853 10.5 22.5 8.48528 22.5 6C22.5 3.51472 20.4853 1.5 18 1.5C15.5147 1.5 13.5 3.51472 13.5 6C13.5 8.48528 15.5147 10.5 18 10.5ZM18 8.25C19.2426 8.25 20.25 7.24264 20.25 6C20.25 4.75736 19.2426 3.75 18 3.75C16.7574 3.75 15.75 4.75736 15.75 6C15.75 7.24264 16.7574 8.25 18 8.25Z" fill="#747272"/>
<rect x="9.26924" y="4.875" width="6" height="2.25" rx="1.125" fill="#747272"/>
<rect x="9.26924" y="16.875" width="6" height="2.25" rx="1.125" fill="#747272"/>
<rect x="9.43561" y="7.78116" width="10.5" height="2.25" rx="1.125" transform="rotate(45 9.43561 7.78116)" fill="#747272"/>
</svg>
