<svg width="24" height="24" viewBox="0 0 24 24" fill="none" xmlns="http://www.w3.org/2000/svg">
<path fill-rule="evenodd" clip-rule="evenodd" d="M2 3C0.895431 3 0 3.89543 0 5V19C0 20.1046 0.89543 21 2 21H22C23.1046 21 24 20.1046 24 19V5C24 3.89543 23.1046 3 22 3H2ZM2.75 5.25C2.47386 5.25 2.25 5.47386 2.25 5.75V18.25C2.25 18.5261 2.47386 18.75 2.75 18.75H21.25C21.5261 18.75 21.75 18.5261 21.75 18.25V5.75C21.75 5.47386 21.5261 5.25 21.25 5.25H2.75Z" fill="#fff"/>
<rect x="17.25" y="18.75" width="13.5" height="2.25" transform="rotate(-90 17.25 18.75)" fill="#fff"/>
<rect x="4.5" y="18.75" width="13.5" height="2.25" transform="rotate(-90 4.5 18.75)" fill="#fff"/>
<rect x="5.25" y="10.875" width="13.5" height="2.25" fill="#fff"/>
<rect x="0.75" y="8.25" width="5.25" height="2.25" fill="#fff"/>
<rect x="18" y="8.25" width="5.25" height="2.25" fill="#fff"/>
<rect x="0.75" y="13.5" width="5.25" height="2.25" fill="#fff"/>
<rect x="18" y="13.5" width="5.25" height="2.25" fill="#fff"/>
</svg>
