<svg width="24" height="24" viewBox="0 0 24 24" fill="none" xmlns="http://www.w3.org/2000/svg">
<path fill-rule="evenodd" clip-rule="evenodd" d="M12 24C18.6274 24 24 18.6274 24 12C24 5.37258 18.6274 0 12 0C5.37258 0 0 5.37258 0 12C0 18.6274 5.37258 24 12 24ZM12 21.75C17.3848 21.75 21.75 17.3848 21.75 12C21.75 6.61522 17.3848 2.25 12 2.25C6.61523 2.25 2.25 6.61522 2.25 12C2.25 17.3848 6.61523 21.75 12 21.75Z" fill="#fff"/>
<path fill-rule="evenodd" clip-rule="evenodd" d="M12 16.5C14.4853 16.5 16.5 14.4853 16.5 12C16.5 9.51472 14.4853 7.5 12 7.5C9.51472 7.5 7.5 9.51472 7.5 12C7.5 14.4853 9.51472 16.5 12 16.5ZM12 14.25C13.2426 14.25 14.25 13.2426 14.25 12C14.25 10.7574 13.2426 9.75 12 9.75C10.7574 9.75 9.75 10.7574 9.75 12C9.75 13.2426 10.7574 14.25 12 14.25Z" fill="#fff"/>
<rect x="14.25" y="10.875" width="9.75" height="2.25" rx="1.125" fill="#fff"/>
<rect x="9.26334" y="11.2648" width="9.75" height="2.25" rx="1.125" transform="rotate(-126 9.26334 11.2648)" fill="#fff"/>
<rect x="10.875" y="24" width="9.75" height="2.25" rx="1.125" transform="rotate(-90 10.875 24)" fill="#fff"/>
<rect x="12.8406" y="9.67383" width="9.75" height="2.25" rx="1.125" transform="rotate(-45 12.8406 9.67383)" fill="#fff"/>
</svg>
